<?xml version="1.0" encoding="UTF-8" standalone="no"?>
<svg width="800" height="400" viewBox="0 0 800 400" xmlns="http://www.w3.org/2000/svg">
  <!-- Dark background with subtle gradient -->
  <defs>
    <linearGradient id="bgGradient" x1="0%" y1="0%" x2="100%" y2="100%">
      <stop offset="0%" style="stop-color:#050508;stop-opacity:1" />
      <stop offset="50%" style="stop-color:#070B14;stop-opacity:1" />
      <stop offset="100%" style="stop-color:#050508;stop-opacity:1" />
    </linearGradient>
    
    <!-- Glow effects -->
    <filter id="blueGlow" x="-50%" y="-50%" width="200%" height="200%">
      <feGaussianBlur stdDeviation="5" result="blur" />
      <feFlood flood-color="#2196F3" flood-opacity="0.7" result="glowColor" />
      <feComposite in="glowColor" in2="blur" operator="in" result="softGlow" />
      <feMerge>
        <feMergeNode in="softGlow" />
        <feMergeNode in="SourceGraphic" />
      </feMerge>
    </filter>
    
    <!-- Node glow effects -->
    <filter id="nodeGlow" x="-50%" y="-50%" width="200%" height="200%">
      <feGaussianBlur stdDeviation="4" result="blur" />
      <feFlood flood-color="#00B0FF" flood-opacity="0.8" result="glowColor" />
      <feComposite in="glowColor" in2="blur" operator="in" result="softGlow" />
      <feMerge>
        <feMergeNode in="softGlow" />
        <feMergeNode in="SourceGraphic" />
      </feMerge>
    </filter>
  </defs>
  
  <!-- Main background -->
  <rect width="800" height="400" fill="url(#bgGradient)" />
  
  <!-- Grid pattern with dots -->
  <g opacity="0.6">
    <!-- Small blue dots in a grid pattern -->
    <g fill="#1C3252" opacity="0.6">
      <!-- Generate a pattern of dots -->
      <!-- This is abbreviated - in a real SVG you'd have many more dots -->
      <!-- Row 1 -->
      <circle cx="50" cy="50" r="1" />
      <circle cx="100" cy="50" r="1" />
      <circle cx="150" cy="50" r="1" />
      <circle cx="200" cy="50" r="1" />
      <circle cx="250" cy="50" r="1" />
      <circle cx="300" cy="50" r="1" />
      <circle cx="350" cy="50" r="1" />
      <circle cx="400" cy="50" r="1" />
      <circle cx="450" cy="50" r="1" />
      <circle cx="500" cy="50" r="1" />
      <circle cx="550" cy="50" r="1" />
      <circle cx="600" cy="50" r="1" />
      <circle cx="650" cy="50" r="1" />
      <circle cx="700" cy="50" r="1" />
      <circle cx="750" cy="50" r="1" />
      
      <!-- Row 2 -->
      <circle cx="50" cy="100" r="1" />
      <circle cx="100" cy="100" r="1" />
      <circle cx="150" cy="100" r="1" />
      <circle cx="200" cy="100" r="1" />
      <circle cx="250" cy="100" r="1" />
      <circle cx="300" cy="100" r="1" />
      <circle cx="350" cy="100" r="1" />
      <circle cx="400" cy="100" r="1" />
      <circle cx="450" cy="100" r="1" />
      <circle cx="500" cy="100" r="1" />
      <circle cx="550" cy="100" r="1" />
      <circle cx="600" cy="100" r="1" />
      <circle cx="650" cy="100" r="1" />
      <circle cx="700" cy="100" r="1" />
      <circle cx="750" cy="100" r="1" />
      
      <!-- Row 3 -->
      <circle cx="50" cy="150" r="1" />
      <circle cx="100" cy="150" r="1" />
      <circle cx="150" cy="150" r="1" />
      <circle cx="200" cy="150" r="1" />
      <circle cx="250" cy="150" r="1" />
      <circle cx="300" cy="150" r="1" />
      <circle cx="350" cy="150" r="1" />
      <circle cx="400" cy="150" r="1" />
      <circle cx="450" cy="150" r="1" />
      <circle cx="500" cy="150" r="1" />
      <circle cx="550" cy="150" r="1" />
      <circle cx="600" cy="150" r="1" />
      <circle cx="650" cy="150" r="1" />
      <circle cx="700" cy="150" r="1" />
      <circle cx="750" cy="150" r="1" />
      
      <!-- Row 4 -->
      <circle cx="50" cy="200" r="1" />
      <circle cx="100" cy="200" r="1" />
      <circle cx="150" cy="200" r="1" />
      <circle cx="200" cy="200" r="1" />
      <circle cx="250" cy="200" r="1" />
      <circle cx="300" cy="200" r="1" />
      <circle cx="350" cy="200" r="1" />
      <circle cx="400" cy="200" r="1" />
      <circle cx="450" cy="200" r="1" />
      <circle cx="500" cy="200" r="1" />
      <circle cx="550" cy="200" r="1" />
      <circle cx="600" cy="200" r="1" />
      <circle cx="650" cy="200" r="1" />
      <circle cx="700" cy="200" r="1" />
      <circle cx="750" cy="200" r="1" />
      
      <!-- Row 5 -->
      <circle cx="50" cy="250" r="1" />
      <circle cx="100" cy="250" r="1" />
      <circle cx="150" cy="250" r="1" />
      <circle cx="200" cy="250" r="1" />
      <circle cx="250" cy="250" r="1" />
      <circle cx="300" cy="250" r="1" />
      <circle cx="350" cy="250" r="1" />
      <circle cx="400" cy="250" r="1" />
      <circle cx="450" cy="250" r="1" />
      <circle cx="500" cy="250" r="1" />
      <circle cx="550" cy="250" r="1" />
      <circle cx="600" cy="250" r="1" />
      <circle cx="650" cy="250" r="1" />
      <circle cx="700" cy="250" r="1" />
      <circle cx="750" cy="250" r="1" />
      
      <!-- Row 6 -->
      <circle cx="50" cy="300" r="1" />
      <circle cx="100" cy="300" r="1" />
      <circle cx="150" cy="300" r="1" />
      <circle cx="200" cy="300" r="1" />
      <circle cx="250" cy="300" r="1" />
      <circle cx="300" cy="300" r="1" />
      <circle cx="350" cy="300" r="1" />
      <circle cx="400" cy="300" r="1" />
      <circle cx="450" cy="300" r="1" />
      <circle cx="500" cy="300" r="1" />
      <circle cx="550" cy="300" r="1" />
      <circle cx="600" cy="300" r="1" />
      <circle cx="650" cy="300" r="1" />
      <circle cx="700" cy="300" r="1" />
      <circle cx="750" cy="300" r="1" />
      
      <!-- Row 7 -->
      <circle cx="50" cy="350" r="1" />
      <circle cx="100" cy="350" r="1" />
      <circle cx="150" cy="350" r="1" />
      <circle cx="200" cy="350" r="1" />
      <circle cx="250" cy="350" r="1" />
      <circle cx="300" cy="350" r="1" />
      <circle cx="350" cy="350" r="1" />
      <circle cx="400" cy="350" r="1" />
      <circle cx="450" cy="350" r="1" />
      <circle cx="500" cy="350" r="1" />
      <circle cx="550" cy="350" r="1" />
      <circle cx="600" cy="350" r="1" />
      <circle cx="650" cy="350" r="1" />
      <circle cx="700" cy="350" r="1" />
      <circle cx="750" cy="350" r="1" />
    </g>
    
    <!-- Blue crosses at major intersections -->
    <g stroke="#2196F3" stroke-width="1.5" stroke-linecap="round" opacity="0.7">
      <!-- Cross at 100,100 -->
      <line x1="94" y1="100" x2="106" y2="100" />
      <line x1="100" y1="94" x2="100" y2="106" />
      
      <!-- Cross at 300,100 -->
      <line x1="294" y1="100" x2="306" y2="100" />
      <line x1="300" y1="94" x2="300" y2="106" />
      
      <!-- Cross at 500,100 -->
      <line x1="494" y1="100" x2="506" y2="100" />
      <line x1="500" y1="94" x2="500" y2="106" />
      
      <!-- Cross at 700,100 -->
      <line x1="694" y1="100" x2="706" y2="100" />
      <line x1="700" y1="94" x2="700" y2="106" />
      
      <!-- Cross at 100,300 -->
      <line x1="94" y1="300" x2="106" y2="300" />
      <line x1="100" y1="294" x2="100" y2="306" />
      
      <!-- Cross at 300,300 -->
      <line x1="294" y1="300" x2="306" y2="300" />
      <line x1="300" y1="294" x2="300" y2="306" />
      
      <!-- Cross at 500,300 -->
      <line x1="494" y1="300" x2="506" y2="300" />
      <line x1="500" y1="294" x2="500" y2="306" />
      
      <!-- Cross at 700,300 -->
      <line x1="694" y1="300" x2="706" y2="300" />
      <line x1="700" y1="294" x2="700" y2="306" />
    </g>
  </g>
  
  <!-- Stylized nodes and connections representing the app -->
  <g filter="url(#nodeGlow)">
    <!-- Node 1 -->
    <rect x="150" y="150" width="120" height="80" rx="10" fill="#111111" stroke="#00B0FF" stroke-width="2" />
    <rect x="150" y="150" width="120" height="25" rx="10" ry="10" fill="#00B0FF" />
    <text x="210" y="167" font-family="Arial" font-size="12" text-anchor="middle" fill="white">Notes</text>
    
    <!-- Node 2 -->
    <rect x="350" y="120" width="120" height="80" rx="10" fill="#111111" stroke="#4CAF50" stroke-width="2" />
    <rect x="350" y="120" width="120" height="25" rx="10" ry="10" fill="#4CAF50" />
    <text x="410" y="137" font-family="Arial" font-size="12" text-anchor="middle" fill="white">Tasks</text>
    
    <!-- Node 3 -->
    <rect x="550" y="170" width="120" height="80" rx="10" fill="#111111" stroke="#FF9800" stroke-width="2" />
    <rect x="550" y="170" width="120" height="25" rx="10" ry="10" fill="#FF9800" />
    <text x="610" y="187" font-family="Arial" font-size="12" text-anchor="middle" fill="white">Automation</text>
    
    <!-- Connections -->
    <path d="M270,190 C310,190 310,160 350,160" stroke="#00B0FF" stroke-width="2" fill="none" />
    <path d="M470,160 C510,160 510,210 550,210" stroke="#4CAF50" stroke-width="2" fill="none" />
  </g>
  
  <!-- Coming Soon Text -->
  <g filter="url(#blueGlow)" transform="translate(400, 330)">
    <text x="0" y="0" font-family="Arial" font-size="36" font-weight="bold" text-anchor="middle" fill="white">COMING SOON</text>
  </g>
  
  <!-- Small caption -->
  <text x="400" y="370" font-family="Arial" font-size="14" text-anchor="middle" fill="#BBBBBB">The future of knowledge flow management</text>
</svg>
